<svg width="40" height="40" xmlns="http://www.w3.org/2000/svg">
 <g id="Layer_1">
  <title>Layer 1</title>
  <path stroke="#000" id="svg_2" d="m-74.61752,-41.231l42.5,-20.4508l42.5,20.4508l-21.25,0l0,20.5492l-42.5,0l0,-20.5492l-21.25,0z" fill="#fff"/>
  <path id="svg_4" d="m15.76126,34.46143c-0.99901,-0.80426 -0.86794,-1.29129 1.56096,-5.79969c1.22648,-2.27651 2.22995,-4.20527 2.22995,-4.28613c0,-0.08085 -3.38673,-0.14701 -7.52608,-0.14701l-7.52608,0l0,-4.26368l0,-4.26368l7.58573,0c5.84903,0 7.52043,-0.12844 7.30056,-0.56101c-0.15684,-0.30856 -1.22675,-2.35608 -2.37758,-4.55004c-2.16932,-4.13567 -2.16863,-5.24476 0.00335,-5.58854c1.08092,-0.17108 17.9095,12.97376 18.48793,14.44097c-5.60545,5.23875 -12.30587,10.72238 -18.47805,15.55738c-0.32545,0 -0.89275,-0.24236 -1.26069,-0.53857l0,0z" stroke="#000" fill="#559E84"/>
 </g>
</svg>