<svg width="28" height="26" viewBox="0 0 28 26" fill="none" xmlns="http://www.w3.org/2000/svg">
<path d="M14 25C13.8205 24.9994 13.6461 24.938 13.5043 24.8254C8.98607 21.2333 5.87369 18.1401 3.69584 15.0885C0.916645 11.1887 0.282793 7.58827 1.81054 4.38697C2.89946 2.10033 6.02809 0.229442 9.68493 1.31871C11.4285 1.83403 12.9497 2.93914 14 4.45349C15.0503 2.93914 16.5715 1.83403 18.3151 1.31871C21.9638 0.246072 25.1005 2.10033 26.1895 4.38697C27.7172 7.58827 27.0834 11.1887 24.3042 15.0885C22.1263 18.1401 19.0139 21.2333 14.4957 24.8254C14.3539 24.938 14.1796 24.9994 14 25Z" stroke="black" stroke-width="1.5"/>
</svg>
