<svg width="40" height="40" xmlns="http://www.w3.org/2000/svg">
 <g id="Layer_1">
  <title>Layer 1</title>
  <path stroke="#000" id="svg_2" d="m-74.61752,-41.231l42.5,-20.4508l42.5,20.4508l-21.25,0l0,20.5492l-42.5,0l0,-20.5492l-21.25,0z" fill="#fff"/>
  <path id="svg_3" d="m36,19.96143l-4.14765,-3.74881l0,-8.95331l-3.55571,0l0,5.73952l-8.29665,-7.49884l-16,14.46143l3.80901,-0.08203l0,14.62059l24.21267,0l0,-14.53856l3.97833,0zm-16,12.44746l-7.90112,0l0,-8.5701l7.90112,0l0,8.5701zm7.67626,-3.6729l-5.19201,0l0,-4.94862l5.19201,0l0,4.94862z" stroke="#000" fill="#559E84"/>
 </g>
</svg>