<svg width="102" height="37" viewBox="0 0 102 37" fill="none" xmlns="http://www.w3.org/2000/svg">
<g clip-path="url(#clip0_857_22)">
<path d="M0.607422 14.0003V0.729492H4.35352C5.50803 0.729492 6.52886 0.984697 7.41602 1.49512C8.30318 2.00553 8.98677 2.73166 9.46682 3.67351C9.95293 4.61534 10.199 5.69694 10.2051 6.91829V7.76595C10.2051 9.01772 9.96203 10.1145 9.47592 11.0563C8.99587 11.9982 8.30622 12.7213 7.4069 13.2256C6.51367 13.7299 5.47157 13.9882 4.2806 14.0003H0.607422ZM2.35742 2.16959V12.5694H4.19857C5.54752 12.5694 6.5957 12.1501 7.3431 11.3115C8.09661 10.4729 8.47328 9.27898 8.47328 7.72949V6.95476C8.47328 5.44781 8.11784 4.2781 7.4069 3.44564C6.70204 2.60709 5.69943 2.18175 4.39909 2.16959H2.35742ZM17.7246 8.63187H14.6074V14.0003H12.8483V0.729492H17.2416C18.7363 0.729492 19.8848 1.06977 20.6869 1.75033C21.495 2.43088 21.8991 3.42133 21.8991 4.72168C21.8991 5.54807 21.6743 6.26812 21.2246 6.88184C20.7811 7.49555 20.1613 7.95435 19.3652 8.25815L22.4824 13.891V14.0003H20.6048L17.7246 8.63187ZM14.6074 7.20084H17.2962C18.1652 7.20084 18.8548 6.97602 19.3652 6.52636C19.8817 6.07671 20.14 5.47515 20.14 4.72168C20.14 3.90136 19.8939 3.27246 19.4017 2.83496C18.9156 2.39746 18.2108 2.17568 17.2871 2.16959H14.6074V7.20084ZM31.8613 7.86623H26.11V12.5694H32.791V14.0003H24.36V0.729492H32.6999V2.16959H26.11V6.43522H31.8613V7.86623ZM42.2975 10.5368H36.7377L35.4889 14.0003H33.6843L38.7519 0.729492H40.2832L45.36 14.0003H43.5644L42.2975 10.5368ZM37.2663 9.09667H41.778L39.5176 2.88965L37.2663 9.09667ZM49.4069 0.729492L53.7455 11.5576L58.084 0.729492H60.3536V14.0003H58.6036V8.83238L58.7676 3.25423L54.4108 14.0003H53.071L48.7233 3.28158L48.8965 8.83238V14.0003H47.1465V0.729492H49.4069ZM66.8157 7.82975L65.1934 9.51597V14.0003H63.4434V0.729492H65.1934V7.29199L71.0905 0.729492H73.2051L67.9824 6.59017L73.6152 14.0003H71.5189L66.8157 7.82975ZM82.4746 10.5368H76.9147L75.6661 14.0003H73.8613L78.9287 0.729492H80.4601L85.5375 14.0003H83.7416L82.4746 10.5368ZM77.4434 9.09667H81.955L79.6948 2.88965L77.4434 9.09667ZM89.5842 0.729492L93.9227 11.5576L98.2611 0.729492H100.531V14.0003H98.7807V8.83238L98.9448 3.25423L94.5877 14.0003H93.2483L88.9006 3.28158L89.0732 8.83238V14.0003H87.3232V0.729492H89.5842Z" fill="white"/>
<path d="M11.0404 24.1781H6.77479V36.0088H5.03389V24.1781H0.777344V22.738H11.0404V24.1781ZM22.9623 29.8018C22.9623 31.1021 22.7435 32.2384 22.306 33.2106C21.8685 34.1768 21.2488 34.9151 20.4466 35.4255C19.6446 35.9359 18.7088 36.1911 17.6393 36.1911C16.5942 36.1911 15.6676 35.9359 14.8594 35.4255C14.0513 34.909 13.4224 34.1768 12.9727 33.2289C12.5291 32.2749 12.3013 31.172 12.2891 29.9203V28.9632C12.2891 27.6872 12.5109 26.5601 12.9545 25.5818C13.398 24.6034 14.0239 23.856 14.8321 23.3395C15.6463 22.817 16.576 22.5557 17.6211 22.5557C18.6845 22.5557 19.6203 22.814 20.4284 23.3304C21.2426 23.8409 21.8685 24.5852 22.306 25.5635C22.7435 26.5357 22.9623 27.6689 22.9623 28.9632V29.8018ZM21.2214 28.945C21.2214 27.3712 20.9054 26.1651 20.2735 25.3265C19.6415 24.4819 18.7574 24.0596 17.6211 24.0596C16.5152 24.0596 15.6432 24.4819 15.0052 25.3265C14.3733 26.1651 14.0482 27.3318 14.03 28.8265V29.8018C14.03 31.327 14.349 32.527 14.987 33.402C15.6311 34.2709 16.5152 34.7054 17.6393 34.7054C18.7696 34.7054 19.6446 34.2953 20.2643 33.475C20.8841 32.6486 21.2032 31.4667 21.2214 29.9294V28.945ZM34.9297 22.738V31.7614C34.9237 33.0131 34.5287 34.037 33.7449 34.833C32.9671 35.629 31.9098 36.0756 30.5729 36.1728L30.1081 36.1911C28.6559 36.1911 27.4983 35.7992 26.6354 35.0154C25.7726 34.2314 25.3351 33.1529 25.3229 31.7796V22.738H27.0547V31.725C27.0547 32.6851 27.319 33.4324 27.8477 33.9671C28.3763 34.4958 29.1298 34.7601 30.1081 34.7601C31.0985 34.7601 31.8551 34.4958 32.3776 33.9671C32.9062 33.4385 33.1706 32.6942 33.1706 31.7341V22.738H34.9297ZM42.5586 30.6404H39.4415V36.0088H37.6824V22.738H42.0756C43.5704 22.738 44.7188 23.0783 45.5209 23.7588C46.3291 24.4394 46.7331 25.4298 46.7331 26.7302C46.7331 27.5565 46.5083 28.2766 46.0586 28.8904C45.6151 29.504 44.9953 29.9628 44.1993 30.2666L47.3165 35.8995V36.0088H45.4388L42.5586 30.6404ZM39.4415 29.2093H42.1302C42.9992 29.2093 43.6888 28.9845 44.1993 28.5348C44.7157 28.0852 44.974 27.4837 44.974 26.7302C44.974 25.9098 44.7279 25.2809 44.2357 24.8434C43.7496 24.4059 43.0447 24.1842 42.1211 24.1781H39.4415V29.2093Z" fill="white"/>
</g>
<defs>
<clipPath id="clip0_857_22">
<rect width="101.111" height="36.5556" fill="white"/>
</clipPath>
</defs>
</svg>
