<svg width="27" height="28" viewBox="0 0 27 28" fill="none" xmlns="http://www.w3.org/2000/svg">
<path fill-rule="evenodd" clip-rule="evenodd" d="M8.10676 7.57504C8.10676 4.49603 10.6028 2 13.6818 2C16.7608 2 19.2568 4.49603 19.2568 7.57504C19.2568 10.6541 16.7608 13.1501 13.6818 13.1501C10.6028 13.1501 8.10676 10.6541 8.10676 7.57504ZM13.6818 1C10.0505 1 7.10676 3.94375 7.10676 7.57504C7.10676 11.2063 10.0505 14.1501 13.6818 14.1501C17.3131 14.1501 20.2568 11.2063 20.2568 7.57504C20.2568 3.94375 17.3131 1 13.6818 1ZM13.1489 15.8065C15.6876 15.7073 18.1501 17.2319 20.263 19.2546C22.3614 21.2636 24.0279 23.6807 24.9673 25.1839C25.1456 25.4692 24.9572 25.8524 24.5691 25.8524H2.4724C2.08585 25.8524 1.89758 25.4742 2.06991 25.1898C2.95045 23.7364 4.49802 21.419 6.45728 19.4457C8.43012 17.4588 10.7416 15.9006 13.1489 15.8065ZM25.8153 24.6539C24.8567 23.1199 23.1391 20.6238 20.9545 18.5323C18.7844 16.4547 16.0649 14.6918 13.1098 14.8073C10.3151 14.9165 7.7729 16.7014 5.74765 18.7412C3.70881 20.7946 2.11385 23.1874 1.21464 24.6716C0.610712 25.6684 1.36092 26.8524 2.4724 26.8524H24.5691C25.6907 26.8524 26.4371 25.6489 25.8153 24.6539Z" fill="black"/>
<path d="M20.263 19.2546L20.4358 19.0741L20.263 19.2546ZM13.1489 15.8065L13.1391 15.5567L13.1489 15.8065ZM24.9673 25.1839L25.1793 25.0514V25.0514L24.9673 25.1839ZM2.06991 25.1898L1.85609 25.0602H1.85609L2.06991 25.1898ZM6.45728 19.4457L6.27987 19.2696L6.45728 19.4457ZM20.9545 18.5323L20.7816 18.7129L20.9545 18.5323ZM25.8153 24.6539L25.6033 24.7864L25.8153 24.6539ZM13.1098 14.8073L13.1196 15.0571L13.1098 14.8073ZM5.74765 18.7412L5.92506 18.9173L5.74765 18.7412ZM1.21464 24.6716L1.00083 24.542H1.00083L1.21464 24.6716ZM13.6818 1.75C10.4647 1.75 7.85676 4.35796 7.85676 7.57504H8.35676C8.35676 4.6341 10.7409 2.25 13.6818 2.25V1.75ZM19.5068 7.57504C19.5068 4.35796 16.8989 1.75 13.6818 1.75V2.25C16.6227 2.25 19.0068 4.6341 19.0068 7.57504H19.5068ZM13.6818 13.4001C16.8989 13.4001 19.5068 10.7921 19.5068 7.57504H19.0068C19.0068 10.516 16.6227 12.9001 13.6818 12.9001V13.4001ZM7.85676 7.57504C7.85676 10.7921 10.4647 13.4001 13.6818 13.4001V12.9001C10.7409 12.9001 8.35676 10.516 8.35676 7.57504H7.85676ZM7.35676 7.57504C7.35676 4.08182 10.1886 1.25 13.6818 1.25V0.75C9.91243 0.75 6.85676 3.80568 6.85676 7.57504H7.35676ZM13.6818 13.9001C10.1886 13.9001 7.35676 11.0683 7.35676 7.57504H6.85676C6.85676 11.3444 9.91243 14.4001 13.6818 14.4001V13.9001ZM20.0068 7.57504C20.0068 11.0683 17.175 13.9001 13.6818 13.9001V14.4001C17.4512 14.4001 20.5068 11.3444 20.5068 7.57504H20.0068ZM13.6818 1.25C17.175 1.25 20.0068 4.08182 20.0068 7.57504H20.5068C20.5068 3.80568 17.4512 0.75 13.6818 0.75V1.25ZM20.4358 19.0741C18.3086 17.0375 15.7819 15.4534 13.1391 15.5567L13.1586 16.0563C15.5933 15.9612 17.9915 17.4262 20.0901 19.4352L20.4358 19.0741ZM25.1793 25.0514C24.2351 23.5405 22.5558 21.1036 20.4358 19.0741L20.0901 19.4352C22.1669 21.4235 23.8207 23.8209 24.7553 25.3164L25.1793 25.0514ZM24.5691 26.1024C25.1518 26.1024 25.4626 25.5048 25.1793 25.0514L24.7553 25.3164C24.7947 25.3795 24.7926 25.4491 24.7623 25.5034C24.7339 25.5542 24.6742 25.6024 24.5691 25.6024V26.1024ZM2.4724 26.1024H24.5691V25.6024H2.4724V26.1024ZM1.85609 25.0602C1.58171 25.5131 1.8932 26.1024 2.4724 26.1024V25.6024C2.36719 25.6024 2.3075 25.5546 2.279 25.5044C2.24849 25.4506 2.24589 25.3818 2.28373 25.3193L1.85609 25.0602ZM6.27987 19.2696C4.30072 21.2629 2.7413 23.5992 1.85609 25.0602L2.28373 25.3193C3.1596 23.8737 4.69533 21.5751 6.63468 19.6219L6.27987 19.2696ZM13.1391 15.5567C10.635 15.6546 8.26583 17.2694 6.27987 19.2696L6.63468 19.6219C8.59441 17.6481 10.8483 16.1466 13.1586 16.0563L13.1391 15.5567ZM20.7816 18.7129C22.9447 20.7837 24.6495 23.2601 25.6033 24.7864L26.0273 24.5215C25.0639 22.9797 23.3336 20.4638 21.1274 18.3517L20.7816 18.7129ZM13.1196 15.0571C15.9705 14.9457 18.6258 16.649 20.7816 18.7129L21.1274 18.3517C18.943 16.2604 16.1593 14.4379 13.1001 14.5575L13.1196 15.0571ZM5.92506 18.9173C7.93722 16.8908 10.4217 15.1625 13.1196 15.0571L13.1001 14.5575C10.2084 14.6705 7.60859 16.5121 5.57025 18.565L5.92506 18.9173ZM1.42846 24.8011C2.323 23.3247 3.90611 20.9507 5.92506 18.9173L5.57025 18.565C3.5115 20.6385 1.90471 23.0502 1.00083 24.542L1.42846 24.8011ZM2.4724 26.6024C1.53865 26.6024 0.934203 25.6169 1.42846 24.8011L1.00083 24.542C0.287221 25.7198 1.1832 27.1024 2.4724 27.1024V26.6024ZM24.5691 26.6024H2.4724V27.1024H24.5691V26.6024ZM25.6033 24.7864C26.1125 25.6012 25.5108 26.6024 24.5691 26.6024V27.1024C25.8706 27.1024 26.7618 25.6967 26.0273 24.5215L25.6033 24.7864Z" fill="black"/>
</svg>
